<?xml version="1.0" standalone="no"?>
<!DOCTYPE svg PUBLIC "-//W3C//DTD SVG 20010904//EN"
 "http://www.w3.org/TR/2001/REC-SVG-20010904/DTD/svg10.dtd">
<svg version="1.0" xmlns="http://www.w3.org/2000/svg"
 width="500.000000pt" height="500.000000pt" viewBox="0 0 500.000000 500.000000"
 preserveAspectRatio="xMidYMid meet">
<metadata>
Created by potrace 1.16, written by Peter Selinger 2001-2019
</metadata>
<g transform="translate(0.000000,500.000000) scale(0.100000,-0.100000)"
fill="#000000" stroke="none">
<path d="M2330 4340 c-178 -25 -297 -51 -445 -99 -280 -90 -511 -236 -751
-476 -152 -151 -233 -258 -309 -406 -123 -240 -176 -418 -174 -588 1 -89 3
-99 10 -62 15 77 21 59 14 -40 -9 -126 7 -137 24 -16 17 130 31 203 49 267 8
30 15 65 14 77 -4 58 167 433 197 433 4 0 -15 -44 -42 -97 -46 -92 -75 -167
-133 -343 -27 -83 -60 -257 -68 -365 l-6 -70 16 35 c9 19 25 80 34 135 19 107
45 213 54 223 3 3 6 -8 6 -24 1 -28 1 -28 15 -10 17 23 19 17 15 -56 -3 -65
14 -60 36 10 9 31 23 64 30 72 6 8 32 56 57 106 54 108 125 215 235 355 74 95
219 248 179 189 -43 -63 -56 -84 -52 -88 2 -2 34 22 72 55 320 275 567 396
921 449 226 34 499 4 732 -80 352 -127 672 -409 842 -742 71 -137 92 -192 123
-310 104 -400 58 -788 -137 -1154 -75 -142 -150 -242 -278 -370 -229 -231
-488 -371 -814 -442 -88 -20 -132 -22 -344 -23 -169 0 -231 -3 -205 -9 21 -5
130 -10 243 -10 174 0 221 3 313 22 360 75 646 234 897 499 76 80 88 90 71 57
-44 -84 -233 -261 -384 -358 -259 -169 -541 -244 -924 -247 -113 -1 -130 -3
-93 -11 25 -5 107 -8 182 -6 85 2 134 0 128 -6 -15 -15 -309 -20 -417 -6 -401
49 -812 285 -1077 618 -32 39 -60 72 -63 72 -8 0 89 -123 144 -184 30 -32 52
-60 50 -63 -6 -5 -88 82 -150 158 -58 72 -143 204 -192 301 -22 42 -41 75 -43
73 -7 -6 38 -97 94 -191 156 -262 364 -468 634 -626 172 -101 327 -159 523
-194 50 -9 121 -22 157 -30 l65 -14 -75 4 c-41 3 -120 14 -176 25 -333 68
-638 233 -878 475 -50 50 -88 80 -104 82 -54 6 233 -254 403 -365 199 -129
447 -223 695 -262 174 -28 462 -15 660 30 273 62 605 240 825 443 37 34 47 27
14 -10 -13 -15 -2 -7 25 18 216 202 415 538 491 830 56 213 68 323 63 595 -5
251 -17 321 -89 510 -17 44 -44 116 -60 159 -103 278 -337 569 -601 749 -119
81 -404 213 -553 256 -241 71 -516 98 -715 71z"/>
<path d="M717 2055 c10 -69 72 -245 129 -363 191 -401 526 -721 934 -894 158
-68 379 -130 450 -127 14 1 -6 8 -45 15 -539 107 -975 411 -1258 881 -79 130
-127 245 -205 493 l-11 35 6 -40z"/>
</g>
</svg>
